# xmcd
#
# Track frame offsets:
#	182
#	10917
#	22502
#	31605
#	47480
#	56305
#	68540
#	81240
#	99325
#	115570
#	123972
#	138242
#	145027
#	152475
#	161070
#	179090
#
# Disc length: 2615 seconds
#
# Revision: 0
# Processed by: cddbd v1.5.1PL0 Copyright (c) Steve Scherf et al.
# Submitted via: audiograbber 1.83.01
#
DISCID=b30a3510
DTITLE=Jiri Plocek - Tea Grass - Folklorni tvar
DYEAR=1993
DGENRE=Bluegrass
TTITLE0=Teagrass Part No. 1
TTITLE1=Sogor, sogor
TTITLE2=Mosardi mange
TTITLE3=Na slavnosti
TTITLE4=Na de tu mange gitarica
TTITLE5=Vlasiko Aa
TTITLE6=Cin ca mange gitarica
TTITLE7=Teagrass Part No. 3
TTITLE8=Balnaj phurdel
TTITLE9=Valasiko c
TTITLE10=Andre krcma gejfom
TTITLE11=Ma cumide man pro drame
TTITLE12=Presmutna nedela
TTITLE13=Ked sa vojak
TTITLE14=Mandowaltz
TTITLE15=V hore pekna jadlica
EXTD=
EXTT0=
EXTT1=
EXTT2=
EXTT3=
EXTT4=
EXTT5=
EXTT6=
EXTT7=
EXTT8=
EXTT9=
EXTT10=
EXTT11=
EXTT12=
EXTT13=
EXTT14=
EXTT15=
PLAYORDER=
